<?xml version="1.0" encoding="utf-8"?>
<!-- Svg Vector Icons : http://www.onlinewebfonts.com/icon -->
<!DOCTYPE svg PUBLIC "-//W3C//DTD SVG 1.1//EN" "http://www.w3.org/Graphics/SVG/1.1/DTD/svg11.dtd">
<svg version="1.1" xmlns="http://www.w3.org/2000/svg" xmlns:xlink="http://www.w3.org/1999/xlink" x="0px" y="0px" viewBox="0 0 1000 1000" enable-background="new 0 0 1000 1000" xml:space="preserve">
<metadata> Svg Vector Icons : http://www.onlinewebfonts.com/icon </metadata>
<g><path d="M310.2,730.4c18.3,0,35.4,5.3,49.9,14.4c-1.5-9.8-2.2-19.8-2.2-30c0-111.8,90.6-202.4,202.4-202.4c88.5,0,163.7,56.8,191.2,136c18.4-8.8,39-13.7,60.7-13.7c78,0,141.3,63.2,141.3,141.3s-63.2,141.3-141.3,141.3h-502c-51.6,0-93.4-41.8-93.4-93.4C216.8,772.2,258.6,730.4,310.2,730.4z"/><path d="M812.2,953.8h-502c-71.6,0-129.9-58.3-129.9-129.9c0-71.6,58.3-129.9,129.9-129.9c4,0,8,0.2,12,0.6c10.4-122.2,113.2-218.6,238.1-218.6c89.3,0,170.2,49.8,211.1,127c13.3-3.1,26.9-4.7,40.9-4.7c98,0,177.8,79.7,177.8,177.8S910.2,953.8,812.2,953.8z M310.2,766.9c-31.4,0-56.9,25.5-56.9,56.9c0,31.4,25.5,56.9,56.9,56.9h502c57.8,0,104.8-47,104.8-104.8c0-57.8-47-104.8-104.8-104.8c-15.8,0-30.9,3.4-45,10.1c-9.4,4.5-20.2,4.7-29.8,0.7c-9.6-4-17-11.9-20.4-21.7c-23.2-66.7-86.1-111.5-156.7-111.5c-91.5,0-165.9,74.4-165.9,165.9c0,8.2,0.6,16.5,1.8,24.7c2.1,14.1-4.2,28.2-16.2,36c-12,7.8-27.4,7.9-39.4,0.3C331.5,770,321,766.9,310.2,766.9z"/><path d="M410.3,302c-10.4,0-20,3-28.2,8.2c0.8-5.5,1.3-11.2,1.3-17c0-63.2-51.3-114.5-114.5-114.5c-50.1,0-92.6,32.2-108.1,76.9c-10.4-5-22.1-7.7-34.4-7.7c-44.1,0-79.9,35.8-79.9,79.9c0,44.1,35.8,79.9,79.9,79.9h283.9c29.2,0,52.8-23.7,52.8-52.8C463.2,325.6,439.5,302,410.3,302z"/><path d="M410.3,444.1H126.4C62.2,444.1,10,391.9,10,327.7c0-64.2,52.2-116.4,116.4-116.4c5.1,0,10.1,0.3,15,0.9c27.3-43,75.1-70.1,127.5-70.1c73.9,0,135.6,53.4,148.5,123.6c46,3.6,82.3,42.2,82.3,89.1C499.7,404,459.6,444.1,410.3,444.1z M126.4,284.3c-23.9,0-43.4,19.5-43.4,43.4s19.5,43.4,43.4,43.4h283.9c9,0,16.3-7.3,16.3-16.3c0-9-7.3-16.3-16.3-16.3c-3.1,0-6.1,0.8-8.7,2.5c-12.1,7.6-27.5,7.5-39.4-0.3c-12-7.8-18.3-21.8-16.2-36c0.6-3.9,0.9-7.8,0.9-11.6c0-43-35-78-78-78c-33.2,0-62.8,21.1-73.7,52.4c-3.4,9.8-10.8,17.7-20.4,21.7c-9.6,4-20.4,3.7-29.8-0.7C139.2,285.8,132.9,284.3,126.4,284.3z"/><path d="M621.4,198c0,19.1,15.5,34.6,34.6,34.6h185.7c28.9,0,52.3-23.4,52.3-52.3c0-28.9-23.4-52.3-52.3-52.3c-8,0-15.7,1.8-22.5,5.1c-10.2-29.3-38-50.3-70.7-50.3c-41.4,0-74.9,33.5-74.9,74.9c0,3.8,0.3,7.5,0.8,11.1c-5.3-3.4-11.7-5.3-18.4-5.3C636.9,163.4,621.4,178.9,621.4,198z"/><path d="M841.7,269H655.9c-39.2,0-71.1-31.9-71.1-71.1c0-34,24-62.6,56-69.5c12.8-47.3,56.2-82.2,107.5-82.2c36,0,69,17.4,89.7,45.3c1.2,0,2.4-0.1,3.5-0.1c48.9,0,88.8,39.8,88.8,88.8C930.4,229.2,890.6,269,841.7,269z M698.7,196h143c8.7,0,15.7-7.1,15.7-15.8c0-8.7-7.1-15.8-15.7-15.8c-2.4,0-4.6,0.5-6.8,1.5c-9.4,4.5-20.2,4.7-29.8,0.7c-9.6-4-17-11.9-20.4-21.7c-5.4-15.4-19.9-25.8-36.3-25.8c-21.2,0-38.4,17.2-38.4,38.4c0,1.9,0.1,3.8,0.4,5.7C712.3,175.6,707.8,187.9,698.7,196z"/><g></g><g></g><g></g><g></g><g></g><g></g><g></g><g></g><g></g><g></g><g></g><g></g><g></g><g></g><g></g></g>
</svg>