<?xml version="1.0" encoding="utf-8"?>
<svg width="1920" height="1080" enable-background="new 0 0 1000 1000" version="1.1" xmlns="http://www.w3.org/2000/svg">
  <path fill="#000000" stroke="#000000" id="svg_3" d="M 1809.045 1172.087 L 1307.045 1172.087 C 1235.445 1172.087 1177.145 1113.787 1177.145 1042.187 C 1177.145 970.587 1235.445 912.287 1307.045 912.287 C 1311.045 912.287 1315.045 912.487 1319.045 912.887 C 1329.445 790.687 1432.245 694.287 1557.145 694.287 C 1646.445 694.287 1727.345 744.087 1768.245 821.287 C 1781.545 818.187 1795.145 816.587 1809.145 816.587 C 1907.145 816.587 1986.945 896.287 1986.945 994.387 C 1986.945 1092.487 1907.045 1172.087 1809.045 1172.087 Z M 1307.045 985.187 C 1275.645 985.187 1250.145 1010.687 1250.145 1042.087 C 1250.145 1073.487 1275.645 1098.987 1307.045 1098.987 L 1809.045 1098.987 C 1866.845 1098.987 1913.845 1051.987 1913.845 994.187 C 1913.845 936.387 1866.845 889.387 1809.045 889.387 C 1793.245 889.387 1778.145 892.787 1764.045 899.487 C 1754.645 903.987 1743.845 904.187 1734.245 900.187 C 1724.645 896.187 1717.245 888.287 1713.845 878.487 C 1690.645 811.787 1627.745 766.987 1557.145 766.987 C 1465.645 766.987 1391.245 841.387 1391.245 932.887 C 1391.245 941.087 1391.845 949.387 1393.045 957.587 C 1395.145 971.687 1388.845 985.787 1376.845 993.587 C 1364.845 1001.387 1349.445 1001.487 1337.445 993.887 C 1328.345 988.287 1317.845 985.187 1307.045 985.187 Z"/>
  <path fill="#000000" stroke="#000000" id="svg_4" d="M 940.3 1038.666 C 929.9 1038.666 920.3 1041.666 912.1 1046.866 C 912.9 1041.366 913.4 1035.666 913.4 1029.866 C 913.4 966.666 862.1 915.366 798.9 915.366 C 748.8 915.366 706.3 947.566 690.8 992.266 C 680.4 987.266 668.7 984.566 656.4 984.566 C 612.3 984.566 576.5 1020.366 576.5 1064.466 C 576.5 1108.566 612.3 1144.366 656.4 1144.366 L 940.3 1144.366 C 969.5 1144.366 993.1 1120.666 993.1 1091.566 C 993.2 1062.266 969.5 1038.666 940.3 1038.666 Z"/>
  <path fill="#000000" stroke="#000000" id="svg_27" d="M 52.23 1130.467 L 537.947 1130.467 C 607.224 1130.467 663.633 1072.167 663.633 1000.567 C 663.633 928.967 607.224 870.667 537.947 870.667 C 534.077 870.667 530.206 870.867 526.336 871.267 C 516.273 749.067 416.808 652.667 295.959 652.667 C 209.556 652.667 131.28 702.467 91.706 779.667 C 78.838 776.567 65.679 774.967 52.133 774.967 C -42.688 774.967 -119.9 854.667 -119.9 952.767 C -119.9 1050.867 -42.591 1130.467 52.23 1130.467 Z M 537.947 943.567 C 568.328 943.567 593.001 969.067 593.001 1000.467 C 593.001 1031.867 568.328 1057.367 537.947 1057.367 L 52.23 1057.367 C -3.695 1057.367 -49.171 1010.367 -49.171 952.567 C -49.171 894.767 -3.695 847.767 52.23 847.767 C 67.517 847.767 82.128 851.167 95.77 857.867 C 104.865 862.367 115.315 862.567 124.604 858.567 C 133.892 854.567 141.052 846.667 144.342 836.867 C 166.789 770.167 227.649 725.367 295.959 725.367 C 384.491 725.367 456.478 799.767 456.478 891.267 C 456.478 899.467 455.897 907.767 454.736 915.967 C 452.704 930.067 458.8 944.167 470.411 951.967 C 482.022 959.767 496.922 959.867 508.533 952.267 C 517.338 946.667 527.497 943.567 537.947 943.567 Z"/>
  <path fill="#000000" stroke="#000000" id="svg_5" d="M 940.3 1180.766 L 656.4 1180.766 C 592.2 1180.766 540 1128.566 540 1064.366 C 540 1000.166 592.2 947.966 656.4 947.966 C 661.5 947.966 666.5 948.266 671.4 948.866 C 698.7 905.866 746.5 878.766 798.9 878.766 C 872.8 878.766 934.5 932.166 947.4 1002.366 C 993.4 1005.966 1029.7 1044.566 1029.7 1091.466 C 1029.7 1140.666 989.6 1180.766 940.3 1180.766 Z M 656.4 1020.966 C 632.5 1020.966 613 1040.466 613 1064.366 C 613 1088.266 632.5 1107.766 656.4 1107.766 L 940.3 1107.766 C 949.3 1107.766 956.6 1100.466 956.6 1091.466 C 956.6 1082.466 949.3 1075.166 940.3 1075.166 C 937.2 1075.166 934.2 1075.966 931.6 1077.666 C 919.5 1085.266 904.1 1085.166 892.2 1077.366 C 880.2 1069.566 873.9 1055.566 876 1041.366 C 876.6 1037.466 876.9 1033.566 876.9 1029.766 C 876.9 986.766 841.9 951.766 798.9 951.766 C 765.7 951.766 736.1 972.866 725.2 1004.166 C 721.8 1013.966 714.4 1021.866 704.8 1025.866 C 695.2 1029.866 684.4 1029.566 675 1025.166 C 669.2 1022.466 662.9 1020.966 656.4 1020.966 Z"/>
  <path fill="#000000" stroke="#000000" id="svg_26" d="M 521.821 922.067 C 504.114 922.067 487.569 927.367 473.539 936.467 C 474.991 926.667 475.668 916.667 475.668 906.467 C 475.668 794.667 388.007 704.067 279.833 704.067 C 194.204 704.067 121.443 760.867 94.835 840.067 C 77.032 831.267 57.1 826.367 36.104 826.367 C -39.366 826.367 -100.613 889.567 -100.613 967.667 C -100.613 1045.767 -39.463 1108.967 36.104 1108.967 L 521.821 1108.967 C 571.747 1108.967 612.191 1067.167 612.191 1015.567 C 612.191 963.867 571.747 922.067 521.821 922.067 Z"/>
  <path fill="#000000" stroke="#000000" id="svg_6" d="M 1023.511 1060.618 C 1023.511 1072.288 1033.553 1081.759 1045.927 1081.759 L 1166.234 1081.759 C 1184.957 1081.759 1200.116 1067.461 1200.116 1049.803 C 1200.116 1032.145 1184.957 1017.847 1166.234 1017.847 C 1161.051 1017.847 1156.062 1018.947 1151.657 1020.963 C 1145.049 1003.061 1127.038 990.229 1105.854 990.229 C 1079.032 990.229 1057.329 1010.698 1057.329 1035.994 C 1057.329 1038.316 1057.524 1040.577 1057.848 1042.776 C 1054.414 1040.699 1050.268 1039.538 1045.927 1039.538 C 1033.553 1039.477 1023.511 1048.948 1023.511 1060.618 Z"/>
  <path fill="#000000" stroke="#000000" id="svg_2" d="M 1323.713 949.362 C 1342.013 949.362 1359.113 954.662 1373.613 963.762 C 1372.113 953.962 1371.413 943.962 1371.413 933.762 C 1371.413 821.962 1462.013 731.362 1573.813 731.362 C 1662.313 731.362 1737.513 788.162 1765.013 867.362 C 1783.413 858.562 1804.013 853.662 1825.713 853.662 C 1903.713 853.662 1967.013 916.862 1967.013 994.962 C 1967.013 1073.062 1903.813 1136.262 1825.713 1136.262 L 1323.713 1136.262 C 1272.113 1136.262 1230.313 1094.462 1230.313 1042.862 C 1230.313 991.162 1272.113 949.362 1323.713 949.362 Z"/>
  <path fill="#000000" stroke="#000000" id="svg_7" d="M 1166.234 1104 L 1045.862 1104 C 1020.466 1104 999.8 1084.509 999.8 1060.557 C 999.8 1039.782 1015.348 1022.308 1036.08 1018.092 C 1044.372 989.191 1072.489 967.866 1105.724 967.866 C 1129.047 967.866 1150.426 978.498 1163.836 995.545 C 1164.614 995.545 1165.391 995.484 1166.104 995.484 C 1197.784 995.484 1223.633 1019.802 1223.633 1049.742 C 1223.698 1079.682 1197.914 1104 1166.234 1104 Z M 1073.59 1059.396 L 1166.234 1059.396 C 1171.87 1059.396 1176.405 1055.058 1176.405 1049.742 C 1176.405 1044.426 1171.805 1040.088 1166.234 1040.088 C 1164.679 1040.088 1163.253 1040.393 1161.828 1041.005 C 1155.738 1043.754 1148.741 1043.876 1142.522 1041.432 C 1136.303 1038.988 1131.509 1034.161 1129.306 1028.173 C 1125.807 1018.764 1116.414 1012.409 1105.789 1012.409 C 1092.054 1012.409 1080.911 1022.919 1080.911 1035.872 C 1080.911 1037.033 1080.976 1038.194 1081.17 1039.355 C 1082.401 1046.931 1079.486 1054.447 1073.59 1059.396 Z"/>
</svg>